<svg id="Layer_1" xmlns="http://www.w3.org/2000/svg" version="1.1" viewBox="28.7 33.9 142.52 132.23">
  <defs>
    <linearGradient id="linear-gradient" x1="44.2" y1="948" x2="158.1" y2="1013.4" gradientTransform="matrix(1 0 0 -1 0 1080)" gradientUnits="userSpaceOnUse">
      <stop offset=".4" stop-color="#266dd3"/>
      <stop offset="1" stop-color="#34beba"/>
    </linearGradient>
    <linearGradient id="linear-gradient1" x1="43.8" y1="1013" x2="157.1" y2="946.6" gradientTransform="matrix(1 0 0 -1 0 1080)" gradientUnits="userSpaceOnUse">
      <stop offset=".4" stop-color="#0a1045"/>
      <stop offset="1" stop-color="#005975"/>
    </linearGradient>
    <style>
      .st1,.st2{stroke:#aad7ff;stroke-miterlimit:10}.st1{fill:#0a1045}.st2{fill:#266dd3}
    </style>
  </defs>
  <path class="st1" d="M130.3 92.5h35.4l-8.7-15h-18l9-15.6-8.7-15-17.7 30.6h-8.7l4.3 7.5-13 22.5h17.3l8.7-15Zm-52 0h26l-8.7-15H78.3L60.6 46.9l-8.7 15 9 15.6h-18l-8.7 15h35.4l4.3 7.5 4.3-7.5Zm34.7 30h-8.7l-13-22.5-8.7 15 8.7 15-17.7 30.6h17.3l9-15.6 9 15.6h17.3L108.5 130l4.3-7.5Z"/>
  <path class="st2" d="m117.3 85-8.7-15 17.7-30.6H109L100 55l-9-15.6H73.7L91.4 70l-4.3 7.5h8.7l13 22.5 8.7-15Zm-39 37.5H87l-4.3-7.5 13-22.5H78.4l-8.7 15H34.3l8.7 15h18l-9 15.6 8.7 15 17.7-30.6Zm69.7 15.6-9-15.6h18l8.7-15h-35.4L126 100l-4.3 7.5h-26l8.7 15h17.3l17.7 30.6 8.7-15Z"/>
  <path class="st1" d="M130.3 92.5h35.4l-8.7-15h-18l9-15.6-8.7-15-17.7 30.6h-8.7l4.3 7.5-13 22.5h17.3l8.7-15Zm-52 0h26l-8.7-15H78.3L60.6 46.9l-8.7 15 9 15.6h-18l-8.7 15h35.4l4.3 7.5 4.3-7.5Zm34.7 30h-8.7l-13-22.5-8.7 15 8.7 15-17.7 30.6h17.3l9-15.6 9 15.6h17.3L108.5 130l4.3-7.5Z"/>
  <path class="st2" d="m117.3 85-8.7-15 17.7-30.6H109L100 55l-9-15.6H73.7L91.4 70l-4.3 7.5h8.7l13 22.5 8.7-15Zm-39 37.5H87l-4.3-7.5 13-22.5H78.4l-8.7 15H34.3l8.7 15h18l-9 15.6 8.7 15 17.7-30.6Zm69.7 15.6-9-15.6h18l8.7-15h-35.4L126 100l-4.3 7.5h-26l8.7 15h17.3l17.7 30.6 8.7-15Z"/>
  <path class="st1" d="M130.3 92.5h35.4l-8.7-15h-18l9-15.6-8.7-15-17.7 30.6h-8.7l4.3 7.5-13 22.5h17.3l8.7-15Zm-52 0h26l-8.7-15H78.3L60.6 46.9l-8.7 15 9 15.6h-18l-8.7 15h35.4l4.3 7.5 4.3-7.5Zm34.7 30h-8.7l-13-22.5-8.7 15 8.7 15-17.7 30.6h17.3l9-15.6 9 15.6h17.3L108.5 130l4.3-7.5Z"/>
  <path d="m117.3 85-8.7-15 17.7-30.6H109L100 55l-9-15.6H73.7L91.4 70l-4.3 7.5h8.7l13 22.5 8.7-15Zm-39 37.5H87l-4.3-7.5 13-22.5H78.4l-8.7 15H34.3l8.7 15h18l-9 15.6 8.7 15 17.7-30.6Zm69.7 15.6-9-15.6h18l8.7-15h-35.4L126 100l-4.3 7.5h-26l8.7 15h17.3l17.7 30.6 8.7-15Z" style="stroke:#aad7ff;stroke-miterlimit:10;fill:url(#linear-gradient)"/>
  <path d="M130.3 92.5h35.4l-8.7-15h-18l9-15.6-8.7-15-17.7 30.6h-8.7l4.3 7.5-13 22.5h17.3l8.7-15Zm-52 0h26l-8.7-15H78.3L60.6 46.9l-8.7 15 9 15.6h-18l-8.7 15h35.4l4.3 7.5 4.3-7.5Zm34.7 30h-8.7l-13-22.5-8.7 15 8.7 15-17.7 30.6h17.3l9-15.6 9 15.6h17.3L108.5 130l4.3-7.5Z" style="fill:url(#linear-gradient1);stroke:#aad7ff;stroke-miterlimit:10"/>
</svg>
